<svg xmlns="http://www.w3.org/2000/svg" style="height: 0; width: 0; position: absolute;"><symbol id="c-add" viewBox="0 0 16 16"><g class="nc-icon-wrapper"><path d="M8,0C3.6,0,0,3.6,0,8s3.6,8,8,8,8-3.6,8-8S12.4,0,8,0Zm4,8.5c0,.276-.224,.5-.5,.5h-2.5v2.5c0,.276-.224,.5-.5,.5h-1c-.276,0-.5-.224-.5-.5v-2.5h-2.5c-.276,0-.5-.224-.5-.5v-1c0-.276,.224-.5,.5-.5h2.5v-2.5c0-.276,.224-.5,.5-.5h1c.276,0,.5,.224,.5,.5v2.5h2.5c.276,0,.5,.224,.5,.5v1Z" fill="currentColor" stroke="none"></path></g></symbol><symbol id="c-check" viewBox="0 0 16 16"><g class="nc-icon-wrapper"><path d="M8,0C3.6,0,0,3.6,0,8s3.6,8,8,8,8-3.6,8-8S12.4,0,8,0Zm3.707,6.707l-4,4c-.195,.195-.451,.293-.707,.293s-.512-.098-.707-.293l-2-2c-.391-.391-.391-1.023,0-1.414s1.023-.391,1.414,0l1.293,1.293,3.293-3.293c.391-.391,1.023-.391,1.414,0s.391,1.023,0,1.414Z" fill="currentColor" stroke="none"></path></g></symbol><symbol id="c-info" viewBox="0 0 16 16"><g class="nc-icon-wrapper"><path d="M8,0C3.6,0,0,3.6,0,8s3.6,8,8,8,8-3.6,8-8S12.4,0,8,0Zm1,11.5c0,.276-.224,.5-.5,.5h-1c-.276,0-.5-.224-.5-.5V7.5c0-.276,.224-.5,.5-.5h1c.276,0,.5,.224,.5,.5v4Zm-1-5.5c-.552,0-1-.448-1-1s.448-1,1-1,1,.448,1,1-.448,1-1,1Z" fill="currentColor" stroke="none"></path></g></symbol><symbol id="c-question" viewBox="0 0 16 16"><g class="nc-icon-wrapper"><path d="M8,0C3.6,0,0,3.6,0,8s3.6,8,8,8,8-3.6,8-8S12.4,0,8,0Zm0,13c-.552,0-1-.448-1-1s.448-1,1-1,1,.448,1,1-.448,1-1,1Zm1.623-4.908c-.497,.427-.623,.571-.623,.908,0,.553-.448,1-1,1s-1-.447-1-1c0-1.294,.795-1.976,1.322-2.427,.497-.425,.623-.57,.623-.906,0-.183,0-.667-.944-.667-.436,.024-.901,.224-1.258,.561-.401,.378-1.035,.359-1.414-.041-.379-.402-.361-1.035,.041-1.414,.702-.661,1.617-1.054,2.579-1.104h.003c1.812,0,2.993,1.071,2.993,2.666,0,1.293-.795,1.975-1.321,2.425Z" fill="currentColor" stroke="none"></path></g></symbol><symbol id="calendar-2" viewBox="0 0 16 16"><g class="nc-icon-wrapper"><path d="M14,3H13V1a1,1,0,0,0-2,0V3H5V1A1,1,0,0,0,3,1V3H2A2,2,0,0,0,0,5v9a2,2,0,0,0,2,2H14a2,2,0,0,0,2-2V5A2,2,0,0,0,14,3ZM2,14V7H14v7Z" fill="currentColor" stroke="none"></path></g></symbol><symbol id="circle-arrow-right" viewBox="0 0 16 16"><g class="nc-icon-wrapper"><path d="M16,8a8,8,0,1,0-8,8A8.024,8.024,0,0,0,16,8ZM8.293,11.955A.5.5,0,0,1,8,11.5V9H4A1,1,0,0,1,4,7H8V4.5a.5.5,0,0,1,.829-.376l4,3.5a.514.514,0,0,1,0,.752l-4,3.5A.5.5,0,0,1,8.293,11.955Z" fill="currentColor" stroke="none"></path></g></symbol><symbol id="i-check" viewBox="0 0 16 16"><g class="nc-icon-wrapper"><path d="M14,0H2C.9,0,0,.9,0,2V14c0,1.1,.9,2,2,2H14c1.1,0,2-.9,2-2V2c0-1.1-.9-2-2-2Zm-.793,5.707l-6,6c-.195,.195-.451,.293-.707,.293s-.512-.098-.707-.293l-3-3c-.391-.391-.391-1.023,0-1.414s1.023-.391,1.414,0l2.293,2.293,5.293-5.293c.391-.391,1.023-.391,1.414,0s.391,1.023,0,1.414Z" fill="currentColor" stroke="none"></path></g></symbol><symbol id="lotus-flower" viewBox="0 0 16 16"><g class="nc-icon-wrapper"><path d="M5.748,14.541A10.988,10.988,0,0,1,3,7.279q0-.5.046-1a7.917,7.917,0,0,0-1.807-.27,1.037,1.037,0,0,0-.992.729,6.479,6.479,0,0,0,6,8.247A3.026,3.026,0,0,1,5.748,14.541Z" fill="currentColor" stroke="none"></path><path d="M10.252,14.541A10.988,10.988,0,0,0,13,7.279q0-.5-.046-1a7.917,7.917,0,0,1,1.807-.27,1.037,1.037,0,0,1,.992.729,6.479,6.479,0,0,1-6,8.247A3.026,3.026,0,0,0,10.252,14.541Z" fill="currentColor" stroke="none"></path><path d="M8,13.559a1,1,0,0,1-.75-.339,8.967,8.967,0,0,1,0-11.881,1.03,1.03,0,0,1,1.5,0,8.967,8.967,0,0,1,0,11.881A1,1,0,0,1,8,13.559Z" fill="inherit" stroke="none"></path></g></symbol><symbol id="mail" viewBox="0 0 16 16"><g class="nc-icon-wrapper"><path d="M14,1H2C.895,1,0,1.895,0,3V13c0,1.105,.895,2,2,2H14c1.105,0,2-.895,2-2V3c0-1.105-.895-2-2-2Zm0,12H2V6.723l5.504,3.145c.308,.176,.685,.176,.992,0l5.504-3.145v6.277Zm0-8.58l-6,3.429L2,4.42v-1.42H14v1.42Z" fill="currentColor" stroke="none"></path></g></symbol><symbol id="o-warning" viewBox="0 0 16 16"><g class="nc-icon-wrapper"><path d="M15.707,4.293l-4-4A1,1,0,0,0,11,0H5a1,1,0,0,0-.707.293l-4,4A1,1,0,0,0,0,5v6a1,1,0,0,0,.293.707l4,4A1,1,0,0,0,5,16h6a1,1,0,0,0,.707-.293l4-4A1,1,0,0,0,16,11V5A1,1,0,0,0,15.707,4.293ZM8,12a1,1,0,1,1,1-1A1,1,0,0,1,8,12ZM9,8.5a.5.5,0,0,1-.5.5h-1A.5.5,0,0,1,7,8.5v-4A.5.5,0,0,1,7.5,4h1a.5.5,0,0,1,.5.5Z" fill="currentColor" stroke="none"></path></g></symbol><symbol id="pen" viewBox="0 0 16 16"><g class="nc-icon-wrapper"><path d="M8.616,2.677,1.646,9.646a.5.5,0,0,0-.128.222l-1.5,5.5a.5.5,0,0,0,.614.614l5.5-1.5a.5.5,0,0,0,.222-.128l6.969-6.97Z" fill="currentColor" stroke="none"></path><path d="M15.561,3.025,12.975.439a1.5,1.5,0,0,0-2.121,0L9.677,1.616l4.707,4.707,1.177-1.177A1.5,1.5,0,0,0,15.561,3.025Z" fill="inherit" stroke="none"></path></g></symbol><symbol id="refresh" viewBox="0 0 16 16"><g class="nc-icon-wrapper"><path d="M14.413.389a.5.5,0,0,0-.849-.235L12.076,1.713a7.494,7.494,0,1,0,3.062,8.595,1,1,0,0,0-1.9-.616,5.513,5.513,0,1,1-2.573-6.5l-1.6,1.68a.5.5,0,0,0,.269.837L15.158,6.8a.478.478,0,0,0,.092.009.5.5,0,0,0,.487-.612Z" fill="currentColor" stroke="none"></path></g></symbol><symbol id="s-add" viewBox="0 0 16 16"><g class="nc-icon-wrapper"><path d="M14,0H2A2,2,0,0,0,0,2V14a2,2,0,0,0,2,2H14a2,2,0,0,0,2-2V2A2,2,0,0,0,14,0ZM12,8.5a.5.5,0,0,1-.5.5H9v2.5a.5.5,0,0,1-.5.5h-1a.5.5,0,0,1-.5-.5V9H4.5A.5.5,0,0,1,4,8.5v-1A.5.5,0,0,1,4.5,7H7V4.5A.5.5,0,0,1,7.5,4h1a.5.5,0,0,1,.5.5V7h2.5a.5.5,0,0,1,.5.5Z" fill="currentColor" stroke="none"></path></g></symbol><symbol id="s-delete" viewBox="0 0 16 16"><g class="nc-icon-wrapper"><path d="M14,0H2A2,2,0,0,0,0,2V14a2,2,0,0,0,2,2H14a2,2,0,0,0,2-2V2A2,2,0,0,0,14,0ZM12,8.5a.5.5,0,0,1-.5.5h-7A.5.5,0,0,1,4,8.5v-1A.5.5,0,0,1,4.5,7h7a.5.5,0,0,1,.5.5Z" fill="currentColor" stroke="none"></path></g></symbol><symbol id="s-remove" viewBox="0 0 16 16"><g class="nc-icon-wrapper"><path d="M14,0H2A2,2,0,0,0,0,2V14a2,2,0,0,0,2,2H14a2,2,0,0,0,2-2V2A2,2,0,0,0,14,0ZM12.182,10.768a.5.5,0,0,1,0,.707l-.707.707a.5.5,0,0,1-.707,0L8,9.414,5.232,12.182a.5.5,0,0,1-.707,0l-.707-.707a.5.5,0,0,1,0-.707L6.586,8,3.818,5.232a.5.5,0,0,1,0-.707l.707-.707a.5.5,0,0,1,.707,0L8,6.586l2.768-2.768a.5.5,0,0,1,.707,0l.707.707a.5.5,0,0,1,0,.707L9.414,8Z" fill="currentColor" stroke="none"></path></g></symbol><symbol id="trash" viewBox="0 0 16 16"><g class="nc-icon-wrapper"><path d="M2,14a2.006,2.006,0,0,0,2,2h8a2.006,2.006,0,0,0,2-2V6H2Z" fill="currentColor" stroke="none"></path><path d="M15,3H11V1a1,1,0,0,0-1-1H6A1,1,0,0,0,5,1V3H1A1,1,0,0,0,1,5H15a1,1,0,0,0,0-2ZM7,2H9V3H7Z" fill="inherit" stroke="none"></path></g></symbol><symbol id="url" viewBox="0 0 16 16"><g class="nc-icon-wrapper"><path d="M10.742,5.258a4.475,4.475,0,0,0-.825-.64L8.435,6.1a2.531,2.531,0,0,1,.893,4.158l-3,3A2.536,2.536,0,0,1,2.742,9.672L2.8,9.61A6,6,0,0,1,2.43,7.535c0-.134.01-.266.019-.4L1.328,8.258a4.535,4.535,0,0,0,6.414,6.414l3-3a4.536,4.536,0,0,0,0-6.414Z" fill="inherit" stroke="none"></path><path d="M5.26,10.74a4.508,4.508,0,0,0,.825.64L7.567,9.9A2.531,2.531,0,0,1,6.674,5.74l3-3A2.536,2.536,0,0,1,13.26,6.326l-.062.062a5.982,5.982,0,0,1,.375,2.075c0,.134-.011.266-.02.4L14.674,7.74A4.535,4.535,0,0,0,8.26,1.326l-3,3a4.536,4.536,0,0,0,0,6.414Z" fill="currentColor" stroke="none"></path></g></symbol><symbol id="warning-sign" viewBox="0 0 16 16"><g class="nc-icon-wrapper"><path d="M15.8,12.526,9.483.88A1.668,1.668,0,0,0,8.8.2,1.693,1.693,0,0,0,6.516.88L.2,12.526A1.678,1.678,0,0,0,1.686,15H14.314a1.7,1.7,0,0,0,.8-.2,1.673,1.673,0,0,0,.687-2.274ZM8,13a1,1,0,1,1,1-1A1,1,0,0,1,8,13ZM9,9.5a.5.5,0,0,1-.5.5h-1A.5.5,0,0,1,7,9.5v-4A.5.5,0,0,1,7.5,5h1a.5.5,0,0,1,.5.5Z" fill="currentColor" stroke="none"></path></g></symbol></svg>