<svg xmlns="http://www.w3.org/2000/svg" style="" viewBox="0 0 48 48"><g class="nc-icon-wrapper"><path d="M46.083 20L40.4 19.529C40.025 18.146 39.473 16.816 38.759 15.573L42.45 11.211C42.786 10.814 42.762 10.226 42.394 9.85801L38.142 5.61501C37.774 5.24701 37.186 5.22301 36.789 5.55901L32.428 9.24901C31.185 8.53301 29.855 7.97901 28.471 7.60001L28 1.91701C27.957 1.39701 27.521 0.998007 27 1.00001H21C20.479 0.998007 20.043 1.39701 20 1.91701L19.529 7.60001C18.146 7.97501 16.816 8.52701 15.573 9.24101L11.211 5.55401C10.814 5.21801 10.226 5.24201 9.85801 5.61001L5.61501 9.85801C5.24701 10.226 5.22301 10.814 5.55901 11.211L9.24901 15.572C8.53301 16.815 7.97901 18.145 7.60001 19.529L1.91701 20C1.39701 20.043 0.998007 20.479 1.00001 21V27C0.998007 27.521 1.39701 27.957 1.91701 28L7.60401 28.475C7.97901 29.858 8.53101 31.188 9.24501 32.431L5.55401 36.789C5.21801 37.186 5.24201 37.774 5.61001 38.142L9.85301 42.385C10.221 42.752 10.808 42.776 11.205 42.441L15.567 38.751C16.812 39.468 18.143 40.022 19.529 40.4L20 46.083C20.043 46.603 20.479 47.002 21 47H27C27.521 47.002 27.957 46.603 28 46.083L28.476 40.392C29.859 40.015 31.188 39.464 32.431 38.75L36.793 42.441C37.19 42.777 37.778 42.753 38.146 42.385L42.389 38.142C42.757 37.774 42.781 37.186 42.445 36.789L38.755 32.428C39.469 31.184 40.022 29.855 40.4 28.471L46.083 28C46.603 27.957 47.002 27.521 47 27V21C47.002 20.479 46.603 20.043 46.083 20ZM24 31C20.134 31 17 27.866 17 24C17 20.134 20.134 17 24 17C27.866 17 31 20.134 31 24C31 27.866 27.866 31 24 31Z" fill="url(#nccpnc-ui-3-0_linear_119_131)"></path> <path d="M24 32C19.589 32 16 28.411 16 24C16 19.589 19.589 16 24 16C28.411 16 32 19.589 32 24C32 28.411 28.411 32 24 32ZM24 18C20.691 18 18 20.691 18 24C18 27.309 20.691 30 24 30C27.309 30 30 27.309 30 24C30 20.691 27.309 18 24 18Z" fill="url(#nccpnc-ui-3-1_linear_119_131)"></path> <defs> <linearGradient id="nccpnc-ui-3-0_linear_119_131" x1="24" y1="1" x2="24" y2="47" gradientUnits="userSpaceOnUse"> <stop stop-color="#cba6f7"></stop> <stop offset="1" stop-color="#8839ef"></stop> </linearGradient> <linearGradient id="nccpnc-ui-3-1_linear_119_131" x1="24" y1="16" x2="24" y2="32" gradientUnits="userSpaceOnUse"> <stop stop-color="#8839ef"></stop> <stop offset="1" stop-color="#8839ef"></stop> </linearGradient> </defs></g></svg>