<svg xmlns="http://www.w3.org/2000/svg" style="" viewBox="0 0 48 48"><g class="nc-icon-wrapper"><path d="M8.41401 13.9999H11L20.847 23.8469L24 20.9999L14 10.9999V8.41395C14 8.14895 13.895 7.89495 13.707 7.70695L8.70701 2.70695C8.31601 2.31595 7.68301 2.31595 7.29301 2.70695L2.70701 7.29295C2.31601 7.68395 2.31601 8.31695 2.70701 8.70695L7.70701 13.7069C7.89401 13.8939 8.14901 13.9999 8.41401 13.9999Z" fill="url(#nc-ui-3-0_linear_119_93)"></path> <path d="M43.989 35.373L27.813 21.312L20.313 27.374L35.373 43.983C35.44 44.06 35.511 44.135 35.586 44.208C37.968 46.59 41.83 46.59 44.213 44.208C44.286 44.135 44.357 44.06 44.426 43.984C46.682 41.485 46.486 37.631 43.989 35.373Z" fill="url(#nc-ui-3-1_linear_119_93)"></path> <path opacity="0.15" d="M27.812 21.312L20.312 27.375L25.611 33.218L32.709 25.569L27.812 21.312Z" fill="#393A46"></path> <path d="M35.629 24.383C41.144 23.926 45.521 19.549 45.977 14.034C46.069 12.586 45.904 11.134 45.492 9.74304L40.187 15.047C39.796 15.437 39.163 15.437 38.773 15.047L32.958 9.23204C32.567 8.84104 32.567 8.20804 32.958 7.81804L38.262 2.51304C36.871 2.10304 35.419 1.94204 33.972 2.03604C28.456 2.49204 24.079 6.86904 23.622 12.384C23.528 13.833 23.69 15.287 24.101 16.679L3.04601 35.688C1.74701 36.862 1.64601 38.867 2.82001 40.166C2.85601 40.206 2.89201 40.244 2.93001 40.281L7.72301 45.075C8.96301 46.311 10.97 46.307 12.206 45.067C12.243 45.031 12.278 44.993 12.313 44.955L31.333 23.9C32.725 24.312 34.18 24.476 35.629 24.383Z" fill="url(#nc-ui-3-2_linear_119_93)"></path> <defs> <linearGradient id="nc-ui-3-0_linear_119_93" x1="13.2069" y1="2.4137" x2="13.2069" y2="23.8469" gradientUnits="userSpaceOnUse"> <stop stop-color="#E0E0E6"></stop> <stop offset="1" stop-color="#C2C3CD"></stop> </linearGradient> <linearGradient id="nc-ui-3-1_linear_119_93" x1="33.1554" y1="21.312" x2="33.1554" y2="45.9945" gradientUnits="userSpaceOnUse"> <stop stop-color="#C2C3CD"></stop> <stop offset="1" stop-color="#A2A3B4"></stop> </linearGradient> <linearGradient id="nc-ui-3-2_linear_119_93" x1="24.0017" y1="2.01001" x2="24.0017" y2="45.9995" gradientUnits="userSpaceOnUse"> <stop stop-color="#5B5E71"></stop> <stop offset="1" stop-color="#393A46"></stop> </linearGradient> </defs></g></svg>