<svg xmlns="http://www.w3.org/2000/svg" viewBox="0 0 48 48"><g class="nc-icon-wrapper"><path fill="#A67C52" d="M34,1c-5.59672,0-10.54982,3.562-12.32622,8.86331c-0.17578,0.5239,0.1065,1.0908,0.6309,1.2661 c0.3721,0.1245,0.7578,0.0107,1.0176-0.2476l13.7881,13.8008c-0.2588,0.2588-0.3731,0.6441-0.25,1.0147 c0.13862,0.4199,0.5292,0.686,0.9492,0.686c0.1045,0,0.2099-0.0166,0.31442-0.05131C43.43258,24.57281,47,19.61721,47,14 C47,6.83151,41.168,1,34,1z"></path> <circle fill="#87613E" cx="30" cy="11" r="3"></circle> <circle fill="#87613E" cx="39" cy="13" r="2"></circle> <path fill="#C19F85" d="M20,9C9.52338,9,1,17.52341,1,28s8.52338,19,19,19c10.47658,0,19-8.5234,19-19S30.47658,9,20,9z"></path> <circle fill="#87613E" cx="15" cy="20" r="3"></circle> <circle fill="#DDC2B6" cx="26" cy="23" r="2"></circle> <circle fill="#DDC2B6" cx="18" cy="36" r="2"></circle> <circle fill="#87613E" cx="10" cy="29" r="2"></circle> <circle fill="#87613E" cx="28" cy="33" r="3"></circle></g></svg>