<svg xmlns="http://www.w3.org/2000/svg" style="" viewBox="0 0 48 48"><g class="nc-icon-wrapper"><path d="M24 1C11.297 1 1 11.297 1 24C1 36.703 11.297 47 24 47C36.703 47 47 36.703 47 24C46.986 11.303 36.697 1.014 24 1ZM7 24C6.988 14.623 14.581 7.012 23.958 7C27.442 6.996 30.844 8.063 33.7 10.058L10.058 33.7C8.066 30.858 6.999 27.471 7 24ZM24 41C20.529 41.001 17.142 39.934 14.3 37.942L37.942 14.3C43.311 21.988 41.43 32.573 33.742 37.942C30.885 39.937 27.484 41.005 24 41Z" fill="url(#nc-ui-7-0_linear_219_13)"></path> <defs> <linearGradient id="nc-ui-7-0_linear_219_13" x1="24" y1="1" x2="24" y2="47" gradientUnits="userSpaceOnUse"> <stop stop-color="#FF666D"></stop> <stop offset="1" stop-color="#E0211F"></stop> </linearGradient> </defs></g></svg>