<svg xmlns="http://www.w3.org/2000/svg" viewBox="0 0 48 48"><g class="nc-icon-wrapper"><path d="M41,21H7V5A1,1,0,0,1,8,4H40a1,1,0,0,1,1,1Z" fill="#aeaeae"></path><path d="M43,8H5a3,3,0,0,0-3,3V41a3,3,0,0,0,3,3H43a3,3,0,0,0,3-3V11A3,3,0,0,0,43,8Z" fill="#e3e3e3"></path><path d="M43,41H5V11H43Z" fill="#fff"></path><circle cx="21" cy="19" r="3" fill="#ffd764"></circle><path d="M26.422,36l-8.715-8.707A.987.987,0,0,0,16.961,27a1,1,0,0,0-.72.348l-6,7A1,1,0,0,0,11,36Z" fill="#38a838"></path><path d="M37.809,34.412l-8-11a1,1,0,0,0-1.4-.223,1.024,1.024,0,0,0-.2.2L18.392,36H37a1,1,0,0,0,.809-1.588Z" fill="#78d478"></path></g></svg>