<svg xmlns="http://www.w3.org/2000/svg" style="" viewBox="0 0 48 48"><g class="nc-icon-wrapper"><path d="M40 3H8C5.239 3 3 5.239 3 8V40C3 42.761 5.239 45 8 45H40C42.761 45 45 42.761 45 40V8C45 5.239 42.761 3 40 3Z" fill="url(#nc-ui-7-0_linear_219_87)"></path> <path d="M25 18H23C22.4477 18 22 18.4477 22 19V37C22 37.5523 22.4477 38 23 38H25C25.5523 38 26 37.5523 26 37V19C26 18.4477 25.5523 18 25 18Z" fill="url(#nc-ui-7-1_linear_219_87)"></path> <path d="M24 14C25.3807 14 26.5 12.8807 26.5 11.5C26.5 10.1193 25.3807 9 24 9C22.6193 9 21.5 10.1193 21.5 11.5C21.5 12.8807 22.6193 14 24 14Z" fill="url(#nc-ui-7-2_linear_219_87)"></path> <defs> <linearGradient id="nc-ui-7-0_linear_219_87" x1="24" y1="3" x2="24" y2="45" gradientUnits="userSpaceOnUse"> <stop stop-color="#DEF2FD"></stop> <stop offset="1" stop-color="#9ED9FA"></stop> </linearGradient> <linearGradient id="nc-ui-7-1_linear_219_87" x1="24" y1="18" x2="24" y2="38" gradientUnits="userSpaceOnUse"> <stop stop-color="#60BEF6"></stop> <stop offset="1" stop-color="#29A0EA"></stop> </linearGradient> <linearGradient id="nc-ui-7-2_linear_219_87" x1="24" y1="9" x2="24" y2="14" gradientUnits="userSpaceOnUse"> <stop stop-color="#60BEF6"></stop> <stop offset="1" stop-color="#29A0EA"></stop> </linearGradient> </defs></g></svg>