<svg xmlns="http://www.w3.org/2000/svg" viewBox="0 0 48 48"><g class="nc-icon-wrapper"><path fill="#A67C52" d="M26,13H2c-0.553,0-1,0.448-1,1v18c0,0.355,0.188,0.685,0.496,0.864l24,14C25.651,46.955,25.826,47,26,47 c0.172,0,0.344-0.044,0.498-0.133C26.809,46.689,27,46.358,27,46V14C27,13.448,26.553,13,26,13z"></path> <path fill="#87613E" d="M46.1,15.005l-20-2c-0.034-0.003-0.066,0.011-0.1,0.011V47c0.201,0,0.402-0.061,0.573-0.181l20-14 C46.841,32.632,47,32.326,47,32V16C47,15.486,46.61,15.056,46.1,15.005z"></path> <path fill="#C19F85" d="M46.504,15.136l-24-14c-0.316-0.185-0.706-0.182-1.019,0.006l-20,12C1.183,13.324,0.998,13.653,1,14.006 s0.19,0.679,0.496,0.857l24,14C25.652,28.955,25.826,29,26,29c0.178,0,0.356-0.047,0.515-0.143l20-12 c0.303-0.182,0.487-0.51,0.485-0.864S46.81,15.314,46.504,15.136z"></path> <polygon fill="#DDC1AF" points="12.971,6.251 9.058,8.599 34.986,23.724 34.986,23.774 38.942,21.401 "></polygon> <polygon fill="#C19F85" points="38.942,21.401 34.986,23.774 34.997,40.923 38.995,38.124 38.984,21.426 "></polygon></g></svg>