<svg xmlns="http://www.w3.org/2000/svg" viewBox="0 0 48 48"><g class="nc-icon-wrapper"><path fill="#EFD358" d="M45.213,12.686l-9.899-9.899c-0.781-0.781-2.047-0.781-2.828,0L2.787,32.485 c-0.781,0.781-0.781,2.047,0,2.828l9.899,9.899c0.781,0.781,2.047,0.781,2.828,0l29.698-29.698 C45.994,14.734,45.994,13.467,45.213,12.686z"></path> <rect x="30.778" y="5.151" transform="matrix(0.7071 -0.7071 0.7071 0.7071 2.837 25.1508)" fill="#CEB341" width="2" height="8"></rect> <rect x="24.061" y="11.247" transform="matrix(0.7071 -0.7071 0.7071 0.7071 -2.3805 21.747)" fill="#CEB341" width="2" height="5"></rect> <rect x="19.464" y="16.464" transform="matrix(0.7071 -0.7071 0.7071 0.7071 -8.4767 20.4645)" fill="#CEB341" width="2" height="8"></rect> <rect x="8.151" y="27.778" transform="matrix(0.7071 -0.7071 0.7071 0.7071 -19.7904 15.7782)" fill="#CEB341" width="2" height="8"></rect> <rect x="12.747" y="22.561" transform="matrix(0.7071 -0.7071 0.7071 0.7071 -13.6942 17.0607)" fill="#CEB341" width="2" height="5"></rect></g></svg>