<svg xmlns="http://www.w3.org/2000/svg" viewBox="0 0 48 48"><g class="nc-icon-wrapper"><rect x="8" y="8" fill="#9EDB9E" width="32" height="32"></rect> <path fill="#4DA34D" d="M40,41H8c-0.553,0-1-0.448-1-1V8c0-0.552,0.447-1,1-1h32c0.553,0,1,0.448,1,1v32C41,40.552,40.553,41,40,41z M9,39h30V9H9V39z"></path> <rect x="4" y="4" fill="#E6E6E6" width="8" height="8"></rect> <path fill="#335262" d="M12,13H4c-0.553,0-1-0.448-1-1V4c0-0.552,0.447-1,1-1h8c0.553,0,1,0.448,1,1v8C13,12.552,12.553,13,12,13z M5,11h6V5H5V11z"></path> <rect x="36" y="4" fill="#E6E6E6" width="8" height="8"></rect> <path fill="#335262" d="M44,13h-8c-0.553,0-1-0.448-1-1V4c0-0.552,0.447-1,1-1h8c0.553,0,1,0.448,1,1v8C45,12.552,44.553,13,44,13z M37,11h6V5h-6V11z"></path> <rect x="4" y="36" fill="#E6E6E6" width="8" height="8"></rect> <path fill="#335262" d="M12,45H4c-0.553,0-1-0.448-1-1v-8c0-0.552,0.447-1,1-1h8c0.553,0,1,0.448,1,1v8C13,44.552,12.553,45,12,45z M5,43h6v-6H5V43z"></path> <rect x="36" y="36" fill="#E6E6E6" width="8" height="8"></rect> <path fill="#335262" d="M44,45h-8c-0.553,0-1-0.448-1-1v-8c0-0.552,0.447-1,1-1h8c0.553,0,1,0.448,1,1v8C45,44.552,44.553,45,44,45z M37,43h6v-6h-6V43z"></path></g></svg>