<svg xmlns="http://www.w3.org/2000/svg" style="height: 0; width: 0; position: absolute;"><symbol id="present" viewBox="0 0 64 64"><title>present</title><g class="nc-icon-wrapper"><path d="M62,13H48.889A6.993,6.993,0,0,0,44,1c-6.807,0-10.432,6.225-12,9.981C30.432,7.225,26.807,1,20,1a6.993,6.993,0,0,0-4.889,12H2a1,1,0,0,0-1,1v8a1,1,0,0,0,1,1H62a1,1,0,0,0,1-1V14A1,1,0,0,0,62,13ZM44,3a5,5,0,0,1,0,10H33.371C34.423,10.067,37.621,3,44,3ZM15,8a5.006,5.006,0,0,1,5-5c6.364,0,9.57,7.066,10.626,10H20A5.006,5.006,0,0,1,15,8Z" fill="inherit" stroke="none"></path><path d="M57,25H36V60H51a6,6,0,0,0,6-6Z" fill="currentColor" stroke="none"></path><path d="M28,25H7V54a6,6,0,0,0,6,6H28Z" fill="currentColor" stroke="none"></path></g></symbol></svg>