<svg xmlns="http://www.w3.org/2000/svg" style="" viewBox="0 0 48 48"><g class="nc-icon-wrapper"><path d="M40.562 39.184L30 23.691V8H35C35.552 8 36 7.552 36 7V2C36 1.448 35.552 1 35 1H13C12.448 1 12 1.448 12 2V7C12 7.552 12.448 8 13 8H18V23.691L7.43797 39.184C5.88297 41.466 6.47197 44.576 8.75397 46.132C9.58397 46.697 10.564 47 11.568 47H36.432C39.193 47 41.431 44.76 41.43 41.998C41.43 40.994 41.127 40.013 40.562 39.184Z" fill="url(#nc-ui-4-0_linear_143_80)"></path> <path d="M31.88 30H16.119L9.09001 40.311C8.15701 41.68 8.51101 43.547 9.88001 44.479C10.378 44.818 10.966 44.999 11.568 45H36.432C38.089 45 39.431 43.655 39.431 41.999C39.431 41.397 39.249 40.809 38.91 40.311L31.88 30Z" fill="url(#nc-ui-4-1_linear_143_80)"></path> <path d="M25 28C26.1046 28 27 27.1046 27 26C27 24.8954 26.1046 24 25 24C23.8954 24 23 24.8954 23 26C23 27.1046 23.8954 28 25 28Z" fill="url(#nc-ui-4-2_linear_143_80)"></path> <path d="M29.5 41C30.3284 41 31 40.3284 31 39.5C31 38.6716 30.3284 38 29.5 38C28.6716 38 28 38.6716 28 39.5C28 40.3284 28.6716 41 29.5 41Z" fill="url(#nc-ui-4-3_linear_143_80)"></path> <path d="M21 39C22.6569 39 24 37.6569 24 36C24 34.3431 22.6569 33 21 33C19.3431 33 18 34.3431 18 36C18 37.6569 19.3431 39 21 39Z" fill="url(#nc-ui-4-4_linear_143_80)"></path> <defs> <linearGradient id="nc-ui-4-0_linear_143_80" x1="23.9996" y1="1" x2="23.9996" y2="47" gradientUnits="userSpaceOnUse"> <stop stop-color="#D8F3E0"></stop> <stop offset="1" stop-color="#9EE0B1"></stop> </linearGradient> <linearGradient id="nc-ui-4-1_linear_143_80" x1="24" y1="30" x2="24" y2="45" gradientUnits="userSpaceOnUse"> <stop stop-color="#6AD084"></stop> <stop offset="1" stop-color="#3CB34B"></stop> </linearGradient> <linearGradient id="nc-ui-4-2_linear_143_80" x1="25" y1="24" x2="25" y2="28" gradientUnits="userSpaceOnUse"> <stop stop-color="#6AD084"></stop> <stop offset="1" stop-color="#3CB34B"></stop> </linearGradient> <linearGradient id="nc-ui-4-3_linear_143_80" x1="29.5" y1="38" x2="29.5" y2="41" gradientUnits="userSpaceOnUse"> <stop stop-color="#3CB34B"></stop> <stop offset="1" stop-color="#288031"></stop> </linearGradient> <linearGradient id="nc-ui-4-4_linear_143_80" x1="21" y1="33" x2="21" y2="39" gradientUnits="userSpaceOnUse"> <stop stop-color="#3CB34B"></stop> <stop offset="1" stop-color="#288031"></stop> </linearGradient> </defs></g></svg>