<svg xmlns="http://www.w3.org/2000/svg" style="" viewBox="0 0 48 48"><g class="nc-icon-wrapper"><path d="M45 10H3C2.447 10 2 9.552 2 9C2 8.448 2.447 8 3 8H45C45.553 8 46 8.448 46 9C46 9.552 45.553 10 45 10Z" fill="url(#nc-ui-3-0_linear_119_144)"></path> <path d="M16 10H3C2.447 10 2 9.552 2 9C2 8.448 2.447 8 3 8H16C16.553 8 17 8.448 17 9C17 9.552 16.553 10 16 10Z" fill="url(#nc-ui-3-1_linear_119_144)"></path> <path d="M45 25H3C2.447 25 2 24.552 2 24C2 23.448 2.447 23 3 23H45C45.553 23 46 23.448 46 24C46 24.552 45.553 25 45 25Z" fill="url(#nc-ui-3-2_linear_119_144)"></path> <path d="M32 25H3C2.447 25 2 24.552 2 24C2 23.448 2.447 23 3 23H32C32.553 23 33 23.448 33 24C33 24.552 32.553 25 32 25Z" fill="url(#nc-ui-3-3_linear_119_144)"></path> <path d="M45 40H3C2.447 40 2 39.552 2 39C2 38.448 2.447 38 3 38H45C45.553 38 46 38.448 46 39C46 39.552 45.553 40 45 40Z" fill="url(#nc-ui-3-4_linear_119_144)"></path> <path d="M16 40H3C2.447 40 2 39.552 2 39C2 38.448 2.447 38 3 38H16C16.553 38 17 38.448 17 39C17 39.552 16.553 40 16 40Z" fill="url(#nc-ui-3-5_linear_119_144)"></path> <path d="M19 16H13C12.447 16 12 15.552 12 15V3C12 2.448 12.447 2 13 2H19C19.553 2 20 2.448 20 3V15C20 15.552 19.553 16 19 16Z" fill="url(#nc-ui-3-6_linear_119_144)"></path> <path d="M35 31H29C28.447 31 28 30.552 28 30V18C28 17.448 28.447 17 29 17H35C35.553 17 36 17.448 36 18V30C36 30.552 35.553 31 35 31Z" fill="url(#nc-ui-3-7_linear_119_144)"></path> <path d="M19 46H13C12.447 46 12 45.552 12 45V33C12 32.448 12.447 32 13 32H19C19.553 32 20 32.448 20 33V45C20 45.552 19.553 46 19 46Z" fill="url(#nc-ui-3-8_linear_119_144)"></path> <path opacity="0.15" d="M12 8H10V10H12V8Z" fill="black"></path> <path opacity="0.15" d="M28 23H26V25H28V23Z" fill="black"></path> <path opacity="0.15" d="M12 38H10V40H12V38Z" fill="black"></path> <defs> <linearGradient id="nc-ui-3-0_linear_119_144" x1="2" y1="9.00001" x2="46" y2="9.00001" gradientUnits="userSpaceOnUse"> <stop stop-color="#DEF2FD"></stop> <stop offset="1" stop-color="#9ED9FA"></stop> </linearGradient> <linearGradient id="nc-ui-3-1_linear_119_144" x1="2.5" y1="9" x2="15.5" y2="9" gradientUnits="userSpaceOnUse"> <stop stop-color="#60BEF6"></stop> <stop offset="1" stop-color="#29A0EA"></stop> </linearGradient> <linearGradient id="nc-ui-3-2_linear_119_144" x1="2" y1="24" x2="46" y2="24" gradientUnits="userSpaceOnUse"> <stop stop-color="#DEF2FD"></stop> <stop offset="1" stop-color="#9ED9FA"></stop> </linearGradient> <linearGradient id="nc-ui-3-3_linear_119_144" x1="2.5" y1="24" x2="31.5" y2="24" gradientUnits="userSpaceOnUse"> <stop stop-color="#60BEF6"></stop> <stop offset="1" stop-color="#29A0EA"></stop> </linearGradient> <linearGradient id="nc-ui-3-4_linear_119_144" x1="2" y1="39" x2="46" y2="39" gradientUnits="userSpaceOnUse"> <stop stop-color="#DEF2FD"></stop> <stop offset="1" stop-color="#9ED9FA"></stop> </linearGradient> <linearGradient id="nc-ui-3-5_linear_119_144" x1="2" y1="39" x2="15.5" y2="39" gradientUnits="userSpaceOnUse"> <stop stop-color="#60BEF6"></stop> <stop offset="1" stop-color="#29A0EA"></stop> </linearGradient> <linearGradient id="nc-ui-3-6_linear_119_144" x1="16" y1="2" x2="16" y2="16" gradientUnits="userSpaceOnUse"> <stop stop-color="#60BEF6"></stop> <stop offset="1" stop-color="#29A0EA"></stop> </linearGradient> <linearGradient id="nc-ui-3-7_linear_119_144" x1="32" y1="17" x2="32" y2="31" gradientUnits="userSpaceOnUse"> <stop stop-color="#60BEF6"></stop> <stop offset="1" stop-color="#29A0EA"></stop> </linearGradient> <linearGradient id="nc-ui-3-8_linear_119_144" x1="16" y1="32" x2="16" y2="46" gradientUnits="userSpaceOnUse"> <stop stop-color="#60BEF6"></stop> <stop offset="1" stop-color="#29A0EA"></stop> </linearGradient> </defs></g></svg>