<svg xmlns="http://www.w3.org/2000/svg" viewBox="0 0 48 48"><g class="nc-icon-wrapper"><path fill="#444444" d="M40,1H6C3.243,1,1,3.243,1,6v24c0,2.757,2.243,5,5,5h34c2.757,0,5-2.243,5-5V6C45,3.243,42.757,1,40,1z"></path> <path fill="#43A6DD" d="M40,32H10c-0.552,0-1-0.448-1-1V5c0-0.552,0.448-1,1-1h30c0.552,0,1,0.448,1,1v26C41,31.552,40.552,32,40,32 z"></path> <path fill="#E6E6E6" d="M44,17H32c-1.654,0-3,1.346-3,3v24c0,1.654,1.346,3,3,3h12c1.654,0,3-1.346,3-3V20 C47,18.346,45.654,17,44,17z"></path> <circle fill="#606060" cx="5" cy="18" r="2"></circle> <path fill="#ED69AB" d="M44,39H32c-0.552,0-1-0.448-1-1V22c0-0.552,0.448-1,1-1h12c0.552,0,1,0.448,1,1v16 C45,38.552,44.552,39,44,39z"></path> <circle fill="#969696" cx="38" cy="43" r="2"></circle></g></svg>